#N canvas 277 215 1475 456 12;
#X obj 78 17 r current-trigger;
#X msg 78 115 \; reset bang \;;
#N canvas 345 481 517 453 minute1 0;
#X msg 272 151 stop;
#X floatatom 376 177 5 0 0 0 - - - 0;
#X obj 25 23 inlet;
#X obj 25 88 bang;
#X msg 38 143 start;
#X obj 25 170 readsf~;
#X text 22 2 start;
#X text 272 4 stop;
#X obj 25 219 throw~ mixer-0;
#X obj 272 107 del 100;
#X msg 376 103 0 100;
#X obj 25 195 *~ 0.9;
#X obj 327 65 r reset;
#X obj 272 84 bang;
#X obj 272 23 inlet;
#X msg 25 117 open minute_1_mid_loud.wav;
#X obj 99 80 s current_part;
#X msg 99 42 1;
#X msg 222 107 0.99;
#X obj 376 147 line 0.99;
#X connect 0 0 5 0;
#X connect 1 0 11 1;
#X connect 2 0 3 0;
#X connect 2 0 17 0;
#X connect 3 0 18 0;
#X connect 3 0 15 0;
#X connect 4 0 5 0;
#X connect 5 0 11 0;
#X connect 9 0 0 0;
#X connect 10 0 19 0;
#X connect 11 0 8 0;
#X connect 12 0 13 0;
#X connect 13 0 10 0;
#X connect 13 0 9 0;
#X connect 14 0 13 0;
#X connect 14 0 17 0;
#X connect 15 0 5 0;
#X connect 15 0 4 0;
#X connect 17 0 16 0;
#X connect 18 0 19 0;
#X connect 19 0 1 0;
#X restore 108 69 pd minute1;
#N canvas 345 481 517 453 minute2 0;
#X msg 272 151 stop;
#X floatatom 376 177 5 0 0 0 - - - 0;
#X obj 25 24 inlet;
#X obj 25 88 bang;
#X msg 38 143 start;
#X obj 25 170 readsf~;
#X text 22 3 start;
#X text 272 5 stop;
#X obj 25 219 throw~ mixer-0;
#X obj 272 107 del 100;
#X msg 376 103 0 100;
#X obj 25 195 *~ 0.9;
#X obj 327 65 r reset;
#X obj 272 84 bang;
#X obj 272 24 inlet;
#X msg 25 117 open minute_2_mid_loud.wav;
#X msg 127 43 2;
#X obj 127 67 s current_part;
#X obj 376 147 line 0.99;
#X msg 222 107 0.99;
#X connect 0 0 5 0;
#X connect 1 0 11 1;
#X connect 2 0 3 0;
#X connect 2 0 16 0;
#X connect 3 0 19 0;
#X connect 3 0 15 0;
#X connect 4 0 5 0;
#X connect 5 0 11 0;
#X connect 9 0 0 0;
#X connect 10 0 18 0;
#X connect 11 0 8 0;
#X connect 12 0 13 0;
#X connect 13 0 10 0;
#X connect 13 0 9 0;
#X connect 14 0 13 0;
#X connect 14 0 16 0;
#X connect 15 0 5 0;
#X connect 15 0 4 0;
#X connect 16 0 17 0;
#X connect 18 0 1 0;
#X connect 19 0 18 0;
#X restore 188 80 pd minute2;
#N canvas 345 481 935 453 minute3 0;
#X msg 282 181 stop;
#X floatatom 386 207 5 0 0 0 - - - 0;
#X obj 25 24 inlet;
#X obj 25 118 bang;
#X msg 38 173 start;
#X obj 25 200 readsf~;
#X text 22 3 start;
#X text 282 5 stop;
#X obj 25 249 throw~ mixer-0;
#X obj 282 137 del 100;
#X obj 337 95 r reset;
#X obj 282 114 bang;
#X obj 282 24 inlet;
#X msg 725 178 stop;
#X floatatom 829 204 5 0 0 0 - - - 0;
#X obj 468 24 inlet;
#X obj 468 115 bang;
#X msg 481 170 start;
#X obj 468 197 readsf~;
#X text 465 3 start;
#X text 725 5 stop;
#X obj 468 246 throw~ mixer-0;
#X obj 725 134 del 100;
#X obj 468 222 *~ 0.9;
#X obj 780 92 r reset;
#X obj 725 111 bang;
#X obj 725 24 inlet;
#X msg 25 146 open minute_3_1_mid_loud.wav;
#X msg 468 143 open minute_3_2_mid_loud.wav;
#X obj 132 70 s current_part;
#X msg 132 43 3;
#X msg 386 133 0 100;
#X msg 829 130 0 100;
#X msg 232 137 0.99;
#X msg 675 134 0.99;
#X obj 25 225 *~ 0.99;
#X obj 829 174 line 0.99;
#X obj 386 177 line 0.99;
#X connect 0 0 5 0;
#X connect 1 0 35 1;
#X connect 2 0 3 0;
#X connect 2 0 30 0;
#X connect 3 0 33 0;
#X connect 3 0 27 0;
#X connect 4 0 5 0;
#X connect 5 0 35 0;
#X connect 9 0 0 0;
#X connect 10 0 11 0;
#X connect 11 0 31 0;
#X connect 11 0 9 0;
#X connect 12 0 11 0;
#X connect 12 0 30 0;
#X connect 13 0 18 0;
#X connect 14 0 23 1;
#X connect 15 0 16 0;
#X connect 15 0 30 0;
#X connect 16 0 34 0;
#X connect 16 0 28 0;
#X connect 17 0 18 0;
#X connect 18 0 23 0;
#X connect 22 0 13 0;
#X connect 23 0 21 0;
#X connect 24 0 25 0;
#X connect 25 0 32 0;
#X connect 25 0 22 0;
#X connect 26 0 25 0;
#X connect 26 0 30 0;
#X connect 27 0 5 0;
#X connect 27 0 4 0;
#X connect 28 0 18 0;
#X connect 28 0 17 0;
#X connect 30 0 29 0;
#X connect 31 0 37 0;
#X connect 32 0 36 0;
#X connect 33 0 37 0;
#X connect 34 0 36 0;
#X connect 35 0 8 0;
#X connect 36 0 14 0;
#X connect 37 0 1 0;
#X restore 316 79 pd minute3;
#N canvas 529 401 1171 468 minute8 0;
#X msg 698 151 stop;
#X floatatom 802 177 5 0 0 0 - - - 0;
#X obj 25 24 inlet;
#X obj 25 88 bang;
#X msg 38 143 start;
#X obj 25 170 readsf~;
#X text 22 3 start;
#X text 698 5 stop;
#X obj 25 219 throw~ mixer-0;
#X obj 698 107 del 100;
#X msg 802 103 0 100;
#X obj 25 195 *~ 0.9;
#X obj 753 25 r reset;
#X obj 698 84 bang;
#X obj 698 24 inlet;
#X obj 552 24 inlet;
#X obj 635 24 inlet;
#X msg 25 117 open minute_8_mid_loud.wav;
#X msg 240 143 start;
#X obj 227 195 *~ 0.9;
#X msg 227 117 open minute_8_sides_loud.wav;
#X obj 227 170 readsf~ 2;
#X obj 227 219 throw~ mixer-1;
#X obj 332 195 *~ 0.9;
#X obj 332 219 throw~ mixer-2;
#X msg 552 92 0.99 0.1;
#X msg 452 107 0.2;
#X msg 635 92 0.2 0.1;
#X obj 127 67 s current_part;
#X msg 127 43 8;
#X obj 802 147 line 0.99;
#X connect 0 0 5 0;
#X connect 0 0 21 0;
#X connect 1 0 11 1;
#X connect 1 0 23 1;
#X connect 1 0 19 1;
#X connect 2 0 3 0;
#X connect 2 0 29 0;
#X connect 3 0 26 0;
#X connect 3 0 17 0;
#X connect 3 0 20 0;
#X connect 4 0 5 0;
#X connect 5 0 11 0;
#X connect 9 0 0 0;
#X connect 10 0 30 0;
#X connect 11 0 8 0;
#X connect 12 0 13 0;
#X connect 13 0 10 0;
#X connect 13 0 9 0;
#X connect 14 0 13 0;
#X connect 14 0 29 0;
#X connect 15 0 25 0;
#X connect 15 0 29 0;
#X connect 16 0 27 0;
#X connect 16 0 29 0;
#X connect 17 0 5 0;
#X connect 17 0 4 0;
#X connect 18 0 21 0;
#X connect 19 0 22 0;
#X connect 20 0 21 0;
#X connect 20 0 18 0;
#X connect 21 0 19 0;
#X connect 21 1 23 0;
#X connect 23 0 24 0;
#X connect 25 0 30 0;
#X connect 26 0 30 0;
#X connect 27 0 30 0;
#X connect 29 0 28 0;
#X connect 30 0 1 0;
#X restore 862 130 pd minute8;
#N canvas 136 277 1544 543 minute4 0;
#X msg 992 181 stop;
#X obj 25 14 inlet;
#X obj 25 78 bang;
#X msg 38 173 start;
#X text 22 -7 start;
#X text 992 -5 stop;
#X obj 992 97 del 100;
#X obj 25 225 *~ 0.9;
#X obj 1047 55 r reset;
#X obj 992 74 bang;
#X obj 992 14 inlet;
#X msg 25 146 open minute_4_1_sides_loud.wav;
#X obj 301 160 del 6000;
#X obj 189 56 s current_part;
#X msg 189 33 4;
#X obj 25 200 readsf~ 2;
#X obj 25 249 throw~ mixer-1;
#X obj 129 249 throw~ mixer-2;
#X obj 129 225 *~ 0.9;
#X msg 455 173 start;
#X obj 442 200 readsf~;
#X obj 442 249 throw~ mixer-0;
#X obj 442 225 *~ 0.9;
#X msg 442 146 open minute_4_1_mid.wav;
#X obj 655 36 inlet;
#X text 651 15 switch;
#X msg 778 173 start;
#X obj 765 200 readsf~;
#X obj 765 249 throw~ mixer-0;
#X obj 765 225 *~ 0;
#X obj 655 58 bang;
#X obj 614 206 line;
#X obj 689 206 line;
#X obj 301 206 line;
#X msg 1065 187 0 100;
#X msg 689 97 0;
#X msg 614 181 0 30;
#X msg 765 146 open minute_4_2_mid_longer.wav;
#X msg 271 97 0.99;
#X msg 614 97 0.99;
#X msg 689 181 0.99 30;
#X msg 301 182 0.99 \, 0 6000;
#X connect 0 0 15 0;
#X connect 0 0 20 0;
#X connect 0 0 27 0;
#X connect 1 0 2 0;
#X connect 1 0 14 0;
#X connect 2 0 11 0;
#X connect 2 0 12 0;
#X connect 2 0 23 0;
#X connect 2 0 37 0;
#X connect 2 0 38 0;
#X connect 2 0 39 0;
#X connect 2 0 35 0;
#X connect 3 0 15 0;
#X connect 6 0 0 0;
#X connect 7 0 16 0;
#X connect 8 0 9 0;
#X connect 9 0 34 0;
#X connect 9 0 6 0;
#X connect 10 0 9 0;
#X connect 10 0 14 0;
#X connect 11 0 15 0;
#X connect 11 0 3 0;
#X connect 12 0 41 0;
#X connect 14 0 13 0;
#X connect 15 0 7 0;
#X connect 15 1 18 0;
#X connect 18 0 17 0;
#X connect 19 0 20 0;
#X connect 20 0 22 0;
#X connect 22 0 21 0;
#X connect 23 0 20 0;
#X connect 23 0 19 0;
#X connect 24 0 30 0;
#X connect 26 0 27 0;
#X connect 27 0 29 0;
#X connect 29 0 28 0;
#X connect 30 0 40 0;
#X connect 30 0 36 0;
#X connect 31 0 22 1;
#X connect 32 0 29 1;
#X connect 33 0 18 1;
#X connect 33 0 7 1;
#X connect 34 0 33 0;
#X connect 34 0 31 0;
#X connect 34 0 32 0;
#X connect 35 0 32 0;
#X connect 36 0 31 0;
#X connect 37 0 27 0;
#X connect 37 0 26 0;
#X connect 38 0 33 0;
#X connect 39 0 31 0;
#X connect 40 0 32 0;
#X connect 41 0 33 0;
#X restore 474 76 pd minute4;
#X floatatom 16 38 5 0 0 0 - current_part - 0;
#X obj 78 41 route 0 1 2 3 4 5 6 7 8 9 10 11, f 74;
#N canvas 315 462 1345 453 minute5 0;
#X msg 1192 151 stop;
#X obj 25 23 inlet;
#X obj 25 88 bang;
#X msg 38 143 start;
#X obj 25 170 readsf~;
#X text 22 2 start;
#X text 1192 4 stop;
#X obj 25 249 throw~ mixer-0;
#X obj 1192 107 del 100;
#X msg 1296 179 0 100;
#X obj 25 225 *~ 0.9;
#X obj 1247 65 r reset;
#X obj 1192 84 bang;
#X obj 1192 23 inlet;
#X obj 99 80 s current_part;
#X msg 99 42 5;
#X obj 261 15 inlet;
#X obj 872 15 inlet;
#X msg 433 143 start;
#X obj 420 225 *~ 0.9;
#X msg 676 143 start;
#X obj 663 170 readsf~;
#X obj 663 249 throw~ mixer-0;
#X msg 951 143 start;
#X msg 25 117 open minute_5_1_mid_loud.wav;
#X msg 420 117 open minute_5_1_sides_loud.wav;
#X msg 663 117 open minute_5_2_mid_loud.wav;
#X msg 938 117 open minute_5_2_sides_loud.wav;
#X obj 872 198 line 0.9;
#X msg 872 117 0;
#X obj 663 225 *~ 0;
#X obj 938 225 *~ 0;
#X obj 261 39 bang;
#X msg 438 63 0 100;
#X obj 872 39 bang;
#X obj 420 249 throw~ mixer-1;
#X obj 938 249 throw~ mixer-1;
#X obj 526 225 *~ 0.9;
#X obj 1044 225 *~ 0;
#X obj 526 249 throw~ mixer-2;
#X obj 1044 249 throw~ mixer-2;
#X obj 938 170 readsf~ 2;
#X obj 420 170 readsf~ 2;
#X msg 261 61 0 100;
#X obj 305 66 del 3000;
#X msg 234 117 0.99;
#X obj 261 198 line 0.99;
#X msg 872 69 0.99 100;
#X msg 305 90 0.99 5500;
#X connect 0 0 4 0;
#X connect 0 0 21 0;
#X connect 0 0 41 0;
#X connect 0 0 42 0;
#X connect 1 0 2 0;
#X connect 1 0 15 0;
#X connect 2 0 45 0;
#X connect 2 0 24 0;
#X connect 2 0 25 0;
#X connect 2 0 26 0;
#X connect 2 0 27 0;
#X connect 3 0 4 0;
#X connect 4 0 10 0;
#X connect 8 0 0 0;
#X connect 9 0 28 0;
#X connect 9 0 46 0;
#X connect 10 0 7 0;
#X connect 11 0 12 0;
#X connect 12 0 9 0;
#X connect 12 0 8 0;
#X connect 13 0 12 0;
#X connect 13 0 15 0;
#X connect 15 0 14 0;
#X connect 16 0 32 0;
#X connect 17 0 34 0;
#X connect 18 0 42 0;
#X connect 19 0 35 0;
#X connect 20 0 21 0;
#X connect 21 0 30 0;
#X connect 23 0 41 0;
#X connect 24 0 4 0;
#X connect 24 0 3 0;
#X connect 25 0 42 0;
#X connect 25 0 18 0;
#X connect 26 0 21 0;
#X connect 26 0 20 0;
#X connect 27 0 41 0;
#X connect 27 0 23 0;
#X connect 28 0 30 1;
#X connect 28 0 31 1;
#X connect 28 0 38 1;
#X connect 29 0 28 0;
#X connect 30 0 22 0;
#X connect 31 0 36 0;
#X connect 32 0 43 0;
#X connect 32 0 29 0;
#X connect 32 0 44 0;
#X connect 33 0 46 0;
#X connect 34 0 47 0;
#X connect 34 0 33 0;
#X connect 37 0 39 0;
#X connect 38 0 40 0;
#X connect 41 0 31 0;
#X connect 41 1 38 0;
#X connect 42 0 19 0;
#X connect 42 1 37 0;
#X connect 43 0 46 0;
#X connect 44 0 48 0;
#X connect 45 0 46 0;
#X connect 46 0 10 1;
#X connect 46 0 19 1;
#X connect 46 0 37 1;
#X connect 47 0 28 0;
#X connect 48 0 46 0;
#X restore 596 114 pd minute5;
#N canvas 236 437 1024 453 minute7 0;
#X msg 842 151 stop;
#X floatatom 694 177 5 0 0 0 - - - 0;
#X obj 25 24 inlet;
#X obj 25 88 bang;
#X msg 38 143 start;
#X text 22 3 start;
#X text 622 5 stop;
#X obj 842 107 del 100;
#X msg 792 111 0 100;
#X obj 25 195 *~ 0.9;
#X obj 792 61 r reset;
#X obj 792 84 bang;
#X obj 622 24 inlet;
#X obj 307 67 s current_part;
#X msg 307 43 7;
#X msg 25 117 open minute_7_sides_loud.wav;
#X msg 622 151 stop;
#X obj 622 84 bang;
#X obj 25 170 readsf~ 2;
#X obj 130 195 *~ 0.9;
#X obj 130 219 throw~ mixer-2;
#X obj 25 219 throw~ mixer-1;
#X obj 622 107 del 8000;
#X msg 694 103 0 8000;
#X msg 253 143 start;
#X obj 240 195 *~ 0.9;
#X msg 240 117 open minute_7_mid_loud.wav;
#X obj 240 219 throw~ mixer-0;
#X obj 240 170 readsf~;
#X msg 532 107 0 \, 0.99 500;
#X obj 694 138 line 0.99;
#X connect 0 0 18 0;
#X connect 0 0 28 0;
#X connect 1 0 9 1;
#X connect 1 0 19 1;
#X connect 1 0 25 1;
#X connect 2 0 3 0;
#X connect 2 0 14 0;
#X connect 3 0 29 0;
#X connect 3 0 15 0;
#X connect 3 0 26 0;
#X connect 4 0 18 0;
#X connect 7 0 0 0;
#X connect 8 0 30 0;
#X connect 9 0 21 0;
#X connect 10 0 11 0;
#X connect 11 0 8 0;
#X connect 11 0 7 0;
#X connect 12 0 14 0;
#X connect 12 0 17 0;
#X connect 14 0 13 0;
#X connect 15 0 18 0;
#X connect 15 0 4 0;
#X connect 16 0 18 0;
#X connect 16 0 28 0;
#X connect 17 0 23 0;
#X connect 17 0 22 0;
#X connect 18 0 9 0;
#X connect 18 1 19 0;
#X connect 19 0 20 0;
#X connect 22 0 16 0;
#X connect 23 0 30 0;
#X connect 24 0 28 0;
#X connect 25 0 27 0;
#X connect 26 0 28 0;
#X connect 26 0 24 0;
#X connect 28 0 25 0;
#X connect 29 0 30 0;
#X connect 30 0 1 0;
#X restore 788 161 pd minute7;
#N canvas 196 441 1024 453 minute9+10 1;
#X msg 842 151 stop;
#X floatatom 694 177 5 0 0 0 - - - 0;
#X obj 25 24 inlet;
#X obj 25 88 bang;
#X msg 38 143 start;
#X text 22 3 start;
#X text 622 5 stop;
#X obj 842 107 del 100;
#X msg 792 111 0 100;
#X obj 25 195 *~ 0.9;
#X obj 792 61 r reset;
#X obj 792 84 bang;
#X obj 622 24 inlet;
#X obj 307 67 s current_part;
#X msg 622 151 stop;
#X obj 622 84 bang;
#X obj 25 170 readsf~ 2;
#X obj 130 195 *~ 0.9;
#X obj 130 219 throw~ mixer-2;
#X obj 25 219 throw~ mixer-1;
#X msg 253 143 start;
#X obj 240 195 *~ 0.9;
#X obj 240 219 throw~ mixer-0;
#X obj 240 170 readsf~;
#X msg 25 117 open minute_9_sides_loud.wav;
#X msg 307 43 910;
#X obj 622 107 del 100;
#X msg 694 103 0 100;
#X text 656 75 fade out possible;
#X obj 694 138 line 0.99;
#X msg 240 117 open minute_9+10_mid_loud.wav;
#X msg 532 107 0.99;
#X connect 0 0 16 0;
#X connect 0 0 23 0;
#X connect 1 0 9 1;
#X connect 1 0 17 1;
#X connect 1 0 21 1;
#X connect 2 0 3 0;
#X connect 2 0 25 0;
#X connect 3 0 31 0;
#X connect 3 0 24 0;
#X connect 3 0 30 0;
#X connect 4 0 16 0;
#X connect 7 0 0 0;
#X connect 8 0 29 0;
#X connect 9 0 19 0;
#X connect 10 0 11 0;
#X connect 11 0 8 0;
#X connect 11 0 7 0;
#X connect 12 0 25 0;
#X connect 12 0 15 0;
#X connect 14 0 16 0;
#X connect 14 0 23 0;
#X connect 15 0 27 0;
#X connect 15 0 26 0;
#X connect 16 0 9 0;
#X connect 16 1 17 0;
#X connect 17 0 18 0;
#X connect 20 0 23 0;
#X connect 21 0 22 0;
#X connect 23 0 21 0;
#X connect 24 0 16 0;
#X connect 24 0 4 0;
#X connect 25 0 13 0;
#X connect 26 0 14 0;
#X connect 27 0 29 0;
#X connect 29 0 1 0;
#X connect 30 0 23 0;
#X connect 30 0 20 0;
#X connect 31 0 29 0;
#X restore 945 157 pd minute9+10;
#N canvas 81 50 1555 479 minute6 0;
#X msg 2382 151 stop;
#X obj 25 23 inlet;
#X obj 25 88 bang;
#X msg 38 143 start;
#X obj 25 170 readsf~;
#X text 22 2 start;
#X text 2382 4 stop;
#X obj 25 249 throw~ mixer-0;
#X obj 2382 107 del 100;
#X msg 2446 179 0 100;
#X obj 25 225 *~ 0.9;
#X obj 2437 65 r reset;
#X obj 2382 84 bang;
#X obj 2382 23 inlet;
#X obj 99 70 s current_part;
#X obj 729 23 inlet;
#X msg 99 42 6;
#X msg 305 143 start;
#X obj 292 225 *~ 0.9;
#X msg 25 117 open minute_6_1_mid_loud.wav;
#X msg 292 117 open minute_6_1_sides_loud.wav;
#X obj 292 170 readsf~ 2;
#X obj 397 225 *~ 0.9;
#X obj 292 249 throw~ mixer-1;
#X obj 397 249 throw~ mixer-2;
#X msg 526 143 start;
#X obj 513 170 readsf~;
#X obj 513 249 throw~ mixer-0;
#X obj 513 225 *~ 0.9;
#X msg 783 143 start;
#X obj 770 225 *~ 0.9;
#X obj 770 170 readsf~ 2;
#X obj 875 225 *~ 0.9;
#X obj 770 249 throw~ mixer-1;
#X obj 875 249 throw~ mixer-2;
#X msg 513 117 open minute_6_2_mid_loud.wav;
#X msg 770 117 open minute_6_2_sides_loud.wav;
#X obj 246 198 line;
#X obj 728 198 line;
#X obj 729 48 bang;
#X msg 246 73 0 50;
#X msg 728 117 0.3;
#X msg 729 72 0.1 100;
#X text 708 2 stop part 1;
#X obj 1062 23 inlet;
#X obj 1062 88 bang;
#X msg 1076 143 start;
#X obj 1062 170 readsf~;
#X obj 1062 249 throw~ mixer-0;
#X obj 1062 225 *~ 0.9;
#X obj 1766 23 inlet;
#X msg 1342 143 start;
#X obj 1329 225 *~ 0.9;
#X obj 1329 170 readsf~ 2;
#X obj 1434 225 *~ 0.9;
#X obj 1329 249 throw~ mixer-1;
#X obj 1434 249 throw~ mixer-2;
#X msg 1603 143 start;
#X obj 1590 170 readsf~;
#X obj 1590 249 throw~ mixer-0;
#X obj 1590 225 *~ 0.9;
#X msg 1930 143 start;
#X obj 1917 225 *~ 0.9;
#X obj 1917 170 readsf~ 2;
#X obj 2022 225 *~ 0.9;
#X obj 1917 249 throw~ mixer-1;
#X obj 2022 249 throw~ mixer-2;
#X obj 1283 198 line;
#X obj 1805 198 line;
#X text 1059 2 start part 4;
#X text 1673 20 start part 5;
#X msg 1062 117 open minute_6_4_mid_loud.wav;
#X msg 1329 117 open minute_6_4_sides_loud.wav;
#X msg 798 72 0 100;
#X obj 1766 47 bang;
#X msg 1283 82 0 50;
#X msg 1590 117 open minute_6_5_mid_loud.wav;
#X msg 1917 117 open minute_6_5_sides_loud.wav;
#X msg 1603 319 start;
#X obj 1590 346 readsf~;
#X obj 1590 425 throw~ mixer-0;
#X obj 1590 401 *~ 0.9;
#X msg 1950 319 start;
#X obj 1937 401 *~ 0.9;
#X obj 1937 346 readsf~ 2;
#X obj 2042 401 *~ 0.9;
#X obj 1937 425 throw~ mixer-1;
#X obj 2042 425 throw~ mixer-2;
#X obj 1825 374 line;
#X msg 246 117 0.99;
#X msg 1590 293 open minute_6_5_3_mid_loud.wav;
#X msg 1937 293 open minute_6_5_3_sides_loud.wav;
#X msg 1283 117 0.6;
#X msg 1825 293 0.5;
#X msg 1805 137 0 \, 0.99 100;
#X obj 1805 90 del 2000;
#X connect 0 0 4 0;
#X connect 0 0 21 0;
#X connect 0 0 26 0;
#X connect 0 0 31 0;
#X connect 0 0 63 0;
#X connect 0 0 58 0;
#X connect 0 0 53 0;
#X connect 0 0 47 0;
#X connect 0 0 84 0;
#X connect 0 0 79 0;
#X connect 1 0 2 0;
#X connect 1 0 16 0;
#X connect 2 0 19 0;
#X connect 2 0 89 0;
#X connect 2 0 20 0;
#X connect 2 0 35 0;
#X connect 2 0 36 0;
#X connect 2 0 41 0;
#X connect 3 0 4 0;
#X connect 4 0 10 0;
#X connect 8 0 0 0;
#X connect 9 0 38 0;
#X connect 9 0 37 1;
#X connect 9 0 67 0;
#X connect 9 0 68 0;
#X connect 9 0 88 0;
#X connect 10 0 7 0;
#X connect 11 0 12 0;
#X connect 12 0 9 0;
#X connect 12 0 8 0;
#X connect 13 0 12 0;
#X connect 13 0 16 0;
#X connect 15 0 39 0;
#X connect 15 0 16 0;
#X connect 16 0 14 0;
#X connect 17 0 21 0;
#X connect 18 0 23 0;
#X connect 19 0 4 0;
#X connect 19 0 3 0;
#X connect 20 0 21 0;
#X connect 20 0 17 0;
#X connect 21 0 18 0;
#X connect 21 1 22 0;
#X connect 22 0 24 0;
#X connect 25 0 26 0;
#X connect 26 0 28 0;
#X connect 28 0 27 0;
#X connect 29 0 31 0;
#X connect 30 0 33 0;
#X connect 31 0 30 0;
#X connect 31 1 32 0;
#X connect 32 0 34 0;
#X connect 35 0 26 0;
#X connect 35 0 25 0;
#X connect 36 0 31 0;
#X connect 36 0 29 0;
#X connect 37 0 10 1;
#X connect 37 0 18 1;
#X connect 37 0 22 1;
#X connect 38 0 28 1;
#X connect 38 0 30 1;
#X connect 38 0 32 1;
#X connect 39 0 40 0;
#X connect 39 0 42 0;
#X connect 40 0 37 0;
#X connect 41 0 38 0;
#X connect 42 0 38 0;
#X connect 44 0 45 0;
#X connect 44 0 16 0;
#X connect 45 0 71 0;
#X connect 45 0 92 0;
#X connect 45 0 72 0;
#X connect 46 0 47 0;
#X connect 47 0 49 0;
#X connect 49 0 48 0;
#X connect 50 0 16 0;
#X connect 50 0 74 0;
#X connect 51 0 53 0;
#X connect 52 0 55 0;
#X connect 53 0 52 0;
#X connect 53 1 54 0;
#X connect 54 0 56 0;
#X connect 57 0 58 0;
#X connect 58 0 60 0;
#X connect 60 0 59 0;
#X connect 61 0 63 0;
#X connect 62 0 65 0;
#X connect 63 0 62 0;
#X connect 63 1 64 0;
#X connect 64 0 66 0;
#X connect 67 0 49 1;
#X connect 67 0 52 1;
#X connect 67 0 54 1;
#X connect 68 0 60 1;
#X connect 68 0 62 1;
#X connect 68 0 64 1;
#X connect 71 0 47 0;
#X connect 71 0 46 0;
#X connect 72 0 53 0;
#X connect 72 0 51 0;
#X connect 73 0 38 0;
#X connect 74 0 73 0;
#X connect 74 0 75 0;
#X connect 74 0 76 0;
#X connect 74 0 77 0;
#X connect 74 0 90 0;
#X connect 74 0 91 0;
#X connect 74 0 93 0;
#X connect 74 0 95 0;
#X connect 75 0 67 0;
#X connect 76 0 58 0;
#X connect 76 0 57 0;
#X connect 77 0 63 0;
#X connect 77 0 61 0;
#X connect 78 0 79 0;
#X connect 79 0 81 0;
#X connect 81 0 80 0;
#X connect 82 0 84 0;
#X connect 83 0 86 0;
#X connect 84 0 83 0;
#X connect 84 1 85 0;
#X connect 85 0 87 0;
#X connect 88 0 81 1;
#X connect 88 0 83 1;
#X connect 88 0 85 1;
#X connect 89 0 37 0;
#X connect 90 0 79 0;
#X connect 90 0 78 0;
#X connect 91 0 84 0;
#X connect 91 0 82 0;
#X connect 92 0 67 0;
#X connect 93 0 88 0;
#X connect 94 0 68 0;
#X connect 95 0 94 0;
#X restore 687 120 pd minute6;
#X obj 835 98 route 22 23 24 25 26 27 28 29 30;
#X obj 593 66 route 12 13 14 15 16 17 18 19 20 21;
#X connect 0 0 8 0;
#X connect 8 0 1 0;
#X connect 8 1 2 0;
#X connect 8 2 2 1;
#X connect 8 3 3 0;
#X connect 8 4 3 1;
#X connect 8 5 4 0;
#X connect 8 6 4 1;
#X connect 8 7 4 2;
#X connect 8 8 4 3;
#X connect 8 9 6 0;
#X connect 8 10 6 1;
#X connect 8 11 6 2;
#X connect 8 12 14 0;
#X connect 13 0 10 1;
#X connect 13 1 5 0;
#X connect 13 2 5 1;
#X connect 13 3 5 2;
#X connect 13 4 5 3;
#X connect 13 5 11 0;
#X connect 13 6 11 1;
#X connect 14 0 9 0;
#X connect 14 1 9 1;
#X connect 14 2 9 2;
#X connect 14 3 9 3;
#X connect 14 4 12 0;
#X connect 14 5 12 1;
#X connect 14 6 12 2;
#X connect 14 7 12 3;
#X connect 14 8 12 4;
#X connect 14 9 10 0;
#X connect 14 10 13 0;
#X coords 0 -1 1 1 50 50 1 10 10;
