#N canvas 323 212 1475 456 12;
#X obj 78 17 r current-trigger;
#X msg 78 115 \; reset bang \;;
#N canvas 345 481 517 453 minute1 0;
#X msg 272 151 stop;
#X floatatom 376 177 5 0 0 0 - - - 0;
#X obj 376 147 line 0.9;
#X obj 25 23 inlet;
#X obj 25 88 bang;
#X msg 38 143 start;
#X obj 25 170 readsf~;
#X text 22 2 start;
#X text 272 4 stop;
#X obj 25 219 throw~ mixer-0;
#X obj 272 107 del 100;
#X msg 376 103 0 100;
#X msg 222 107 0.9;
#X obj 25 195 *~ 0.9;
#X obj 327 65 r reset;
#X obj 272 84 bang;
#X obj 272 23 inlet;
#X msg 25 117 open minute_1_mid_loud.wav;
#X obj 99 80 s current_part;
#X msg 99 42 1;
#X connect 0 0 6 0;
#X connect 1 0 13 1;
#X connect 2 0 1 0;
#X connect 3 0 4 0;
#X connect 3 0 19 0;
#X connect 4 0 12 0;
#X connect 4 0 17 0;
#X connect 5 0 6 0;
#X connect 6 0 13 0;
#X connect 10 0 0 0;
#X connect 11 0 2 0;
#X connect 12 0 2 0;
#X connect 13 0 9 0;
#X connect 14 0 15 0;
#X connect 15 0 11 0;
#X connect 15 0 10 0;
#X connect 16 0 15 0;
#X connect 16 0 19 0;
#X connect 17 0 6 0;
#X connect 17 0 5 0;
#X connect 19 0 18 0;
#X restore 108 69 pd minute1;
#N canvas 345 481 517 453 minute2 0;
#X msg 272 151 stop;
#X floatatom 376 177 5 0 0 0 - - - 0;
#X obj 376 147 line 0.9;
#X obj 25 24 inlet;
#X obj 25 88 bang;
#X msg 38 143 start;
#X obj 25 170 readsf~;
#X text 22 3 start;
#X text 272 5 stop;
#X obj 25 219 throw~ mixer-0;
#X obj 272 107 del 100;
#X msg 376 103 0 100;
#X msg 222 107 0.9;
#X obj 25 195 *~ 0.9;
#X obj 327 65 r reset;
#X obj 272 84 bang;
#X obj 272 24 inlet;
#X msg 25 117 open minute_2_mid_loud.wav;
#X msg 127 43 2;
#X obj 127 67 s current_part;
#X connect 0 0 6 0;
#X connect 1 0 13 1;
#X connect 2 0 1 0;
#X connect 3 0 4 0;
#X connect 3 0 18 0;
#X connect 4 0 12 0;
#X connect 4 0 17 0;
#X connect 5 0 6 0;
#X connect 6 0 13 0;
#X connect 10 0 0 0;
#X connect 11 0 2 0;
#X connect 12 0 2 0;
#X connect 13 0 9 0;
#X connect 14 0 15 0;
#X connect 15 0 11 0;
#X connect 15 0 10 0;
#X connect 16 0 15 0;
#X connect 16 0 18 0;
#X connect 17 0 6 0;
#X connect 17 0 5 0;
#X connect 18 0 19 0;
#X restore 188 80 pd minute2;
#N canvas 345 481 935 453 minute3 0;
#X msg 282 181 stop;
#X floatatom 386 207 5 0 0 0 - - - 0;
#X obj 386 177 line 0.9;
#X obj 25 24 inlet;
#X obj 25 118 bang;
#X msg 38 173 start;
#X obj 25 200 readsf~;
#X text 22 3 start;
#X text 282 5 stop;
#X obj 25 249 throw~ mixer-0;
#X obj 282 137 del 100;
#X msg 232 137 0.9;
#X obj 25 225 *~ 0.9;
#X obj 337 95 r reset;
#X obj 282 114 bang;
#X obj 282 24 inlet;
#X msg 725 178 stop;
#X floatatom 829 204 5 0 0 0 - - - 0;
#X obj 829 174 line 0.9;
#X obj 468 24 inlet;
#X obj 468 115 bang;
#X msg 481 170 start;
#X obj 468 197 readsf~;
#X text 465 3 start;
#X text 725 5 stop;
#X obj 468 246 throw~ mixer-0;
#X obj 725 134 del 100;
#X msg 675 134 0.9;
#X obj 468 222 *~ 0.9;
#X obj 780 92 r reset;
#X obj 725 111 bang;
#X obj 725 24 inlet;
#X msg 25 146 open minute_3_1_mid_loud.wav;
#X msg 468 143 open minute_3_2_mid_loud.wav;
#X obj 132 70 s current_part;
#X msg 132 43 3;
#X msg 386 133 0 100;
#X msg 829 130 0 100;
#X connect 0 0 6 0;
#X connect 1 0 12 1;
#X connect 2 0 1 0;
#X connect 3 0 4 0;
#X connect 3 0 35 0;
#X connect 4 0 11 0;
#X connect 4 0 32 0;
#X connect 5 0 6 0;
#X connect 6 0 12 0;
#X connect 10 0 0 0;
#X connect 11 0 2 0;
#X connect 12 0 9 0;
#X connect 13 0 14 0;
#X connect 14 0 36 0;
#X connect 14 0 10 0;
#X connect 15 0 14 0;
#X connect 15 0 35 0;
#X connect 16 0 22 0;
#X connect 17 0 28 1;
#X connect 18 0 17 0;
#X connect 19 0 20 0;
#X connect 19 0 35 0;
#X connect 20 0 27 0;
#X connect 20 0 33 0;
#X connect 21 0 22 0;
#X connect 22 0 28 0;
#X connect 26 0 16 0;
#X connect 27 0 18 0;
#X connect 28 0 25 0;
#X connect 29 0 30 0;
#X connect 30 0 37 0;
#X connect 30 0 26 0;
#X connect 31 0 30 0;
#X connect 31 0 35 0;
#X connect 32 0 6 0;
#X connect 32 0 5 0;
#X connect 33 0 22 0;
#X connect 33 0 21 0;
#X connect 35 0 34 0;
#X connect 36 0 2 0;
#X connect 37 0 18 0;
#X restore 316 79 pd minute3;
#N canvas 529 401 1171 468 minute8 0;
#X msg 698 151 stop;
#X floatatom 802 177 5 0 0 0 - - - 0;
#X obj 802 147 line 0.9;
#X obj 25 24 inlet;
#X obj 25 88 bang;
#X msg 38 143 start;
#X obj 25 170 readsf~;
#X text 22 3 start;
#X text 698 5 stop;
#X obj 25 219 throw~ mixer-0;
#X obj 698 107 del 100;
#X msg 802 103 0 100;
#X obj 25 195 *~ 0.9;
#X obj 753 25 r reset;
#X obj 698 84 bang;
#X obj 698 24 inlet;
#X obj 552 24 inlet;
#X obj 635 24 inlet;
#X msg 25 117 open minute_8_mid_loud.wav;
#X msg 240 143 start;
#X obj 227 195 *~ 0.9;
#X msg 227 117 open minute_8_sides_loud.wav;
#X obj 227 170 readsf~ 2;
#X obj 227 219 throw~ mixer-1;
#X obj 332 195 *~ 0.9;
#X obj 332 219 throw~ mixer-2;
#X msg 552 92 0.99 0.1;
#X msg 452 107 0.2;
#X msg 635 92 0.2 0.1;
#X obj 127 67 s current_part;
#X msg 127 43 8;
#X connect 0 0 6 0;
#X connect 0 0 22 0;
#X connect 1 0 12 1;
#X connect 1 0 24 1;
#X connect 1 0 20 1;
#X connect 2 0 1 0;
#X connect 3 0 4 0;
#X connect 3 0 30 0;
#X connect 4 0 27 0;
#X connect 4 0 18 0;
#X connect 4 0 21 0;
#X connect 5 0 6 0;
#X connect 6 0 12 0;
#X connect 10 0 0 0;
#X connect 11 0 2 0;
#X connect 12 0 9 0;
#X connect 13 0 14 0;
#X connect 14 0 11 0;
#X connect 14 0 10 0;
#X connect 15 0 14 0;
#X connect 15 0 30 0;
#X connect 16 0 26 0;
#X connect 16 0 30 0;
#X connect 17 0 28 0;
#X connect 17 0 30 0;
#X connect 18 0 6 0;
#X connect 18 0 5 0;
#X connect 19 0 22 0;
#X connect 20 0 23 0;
#X connect 21 0 22 0;
#X connect 21 0 19 0;
#X connect 22 0 20 0;
#X connect 22 1 24 0;
#X connect 24 0 25 0;
#X connect 26 0 2 0;
#X connect 27 0 2 0;
#X connect 28 0 2 0;
#X connect 30 0 29 0;
#X restore 841 130 pd minute8;
#N canvas 136 277 1544 543 minute4 0;
#X msg 992 181 stop;
#X obj 25 14 inlet;
#X obj 25 78 bang;
#X msg 38 173 start;
#X text 22 -7 start;
#X text 992 -5 stop;
#X obj 992 97 del 100;
#X obj 25 225 *~ 0.9;
#X obj 1047 55 r reset;
#X obj 992 74 bang;
#X obj 992 14 inlet;
#X msg 25 146 open minute_4_1_sides_loud.wav;
#X obj 301 160 del 6000;
#X obj 189 56 s current_part;
#X msg 189 33 4;
#X obj 25 200 readsf~ 2;
#X obj 25 249 throw~ mixer-1;
#X obj 129 249 throw~ mixer-2;
#X obj 129 225 *~ 0.9;
#X msg 455 173 start;
#X obj 442 200 readsf~;
#X obj 442 249 throw~ mixer-0;
#X obj 442 225 *~ 0.9;
#X msg 442 146 open minute_4_1_mid.wav;
#X obj 655 36 inlet;
#X text 651 15 switch;
#X msg 778 173 start;
#X obj 765 200 readsf~;
#X obj 765 249 throw~ mixer-0;
#X obj 765 225 *~ 0;
#X obj 655 58 bang;
#X obj 614 206 line;
#X obj 689 206 line;
#X obj 301 206 line;
#X msg 301 182 0.9 \, 0 6000;
#X msg 1065 187 0 100;
#X msg 271 97 0.9;
#X msg 614 97 0.9;
#X msg 689 97 0;
#X msg 614 181 0 30;
#X msg 689 181 0.9 30;
#X msg 765 146 open minute_4_2_mid_longer.wav;
#X connect 0 0 15 0;
#X connect 0 0 20 0;
#X connect 0 0 27 0;
#X connect 1 0 2 0;
#X connect 1 0 14 0;
#X connect 2 0 11 0;
#X connect 2 0 12 0;
#X connect 2 0 23 0;
#X connect 2 0 41 0;
#X connect 2 0 36 0;
#X connect 2 0 37 0;
#X connect 2 0 38 0;
#X connect 3 0 15 0;
#X connect 6 0 0 0;
#X connect 7 0 16 0;
#X connect 8 0 9 0;
#X connect 9 0 35 0;
#X connect 9 0 6 0;
#X connect 10 0 9 0;
#X connect 10 0 14 0;
#X connect 11 0 15 0;
#X connect 11 0 3 0;
#X connect 12 0 34 0;
#X connect 14 0 13 0;
#X connect 15 0 7 0;
#X connect 15 1 18 0;
#X connect 18 0 17 0;
#X connect 19 0 20 0;
#X connect 20 0 22 0;
#X connect 22 0 21 0;
#X connect 23 0 20 0;
#X connect 23 0 19 0;
#X connect 24 0 30 0;
#X connect 26 0 27 0;
#X connect 27 0 29 0;
#X connect 29 0 28 0;
#X connect 30 0 40 0;
#X connect 30 0 39 0;
#X connect 31 0 22 1;
#X connect 32 0 29 1;
#X connect 33 0 18 1;
#X connect 33 0 7 1;
#X connect 34 0 33 0;
#X connect 35 0 33 0;
#X connect 35 0 31 0;
#X connect 35 0 32 0;
#X connect 36 0 33 0;
#X connect 37 0 31 0;
#X connect 38 0 32 0;
#X connect 39 0 31 0;
#X connect 40 0 32 0;
#X connect 41 0 27 0;
#X connect 41 0 26 0;
#X restore 474 76 pd minute4;
#X floatatom 16 38 5 0 0 0 - current_part - 0;
#X obj 78 41 route 0 1 2 3 4 5 6 7 8 9 10 11, f 74;
#X obj 593 66 route 12 13 14 15 16 17 18 19 20;
#N canvas 315 462 1345 453 minute5 0;
#X msg 1192 151 stop;
#X obj 261 198 line 0.9;
#X obj 25 23 inlet;
#X obj 25 88 bang;
#X msg 38 143 start;
#X obj 25 170 readsf~;
#X text 22 2 start;
#X text 1192 4 stop;
#X obj 25 249 throw~ mixer-0;
#X obj 1192 107 del 100;
#X msg 1296 179 0 100;
#X msg 234 117 0.9;
#X obj 25 225 *~ 0.9;
#X obj 1247 65 r reset;
#X obj 1192 84 bang;
#X obj 1192 23 inlet;
#X obj 99 80 s current_part;
#X msg 99 42 5;
#X obj 261 15 inlet;
#X obj 872 15 inlet;
#X msg 433 143 start;
#X obj 420 225 *~ 0.9;
#X msg 676 143 start;
#X obj 663 170 readsf~;
#X obj 663 249 throw~ mixer-0;
#X msg 951 143 start;
#X msg 25 117 open minute_5_1_mid_loud.wav;
#X msg 420 117 open minute_5_1_sides_loud.wav;
#X msg 663 117 open minute_5_2_mid_loud.wav;
#X msg 938 117 open minute_5_2_sides_loud.wav;
#X obj 872 198 line 0.9;
#X msg 872 117 0;
#X obj 663 225 *~ 0;
#X obj 938 225 *~ 0;
#X obj 261 39 bang;
#X msg 438 63 0 100;
#X msg 872 69 0.9 100;
#X obj 872 39 bang;
#X obj 420 249 throw~ mixer-1;
#X obj 938 249 throw~ mixer-1;
#X obj 526 225 *~ 0.9;
#X obj 1044 225 *~ 0;
#X obj 526 249 throw~ mixer-2;
#X obj 1044 249 throw~ mixer-2;
#X obj 938 170 readsf~ 2;
#X obj 420 170 readsf~ 2;
#X msg 261 61 0 100;
#X obj 305 66 del 3000;
#X msg 305 90 0.9 5500;
#X connect 0 0 5 0;
#X connect 0 0 23 0;
#X connect 0 0 44 0;
#X connect 0 0 45 0;
#X connect 1 0 12 1;
#X connect 1 0 21 1;
#X connect 1 0 40 1;
#X connect 2 0 3 0;
#X connect 2 0 17 0;
#X connect 3 0 11 0;
#X connect 3 0 26 0;
#X connect 3 0 27 0;
#X connect 3 0 28 0;
#X connect 3 0 29 0;
#X connect 4 0 5 0;
#X connect 5 0 12 0;
#X connect 9 0 0 0;
#X connect 10 0 1 0;
#X connect 10 0 30 0;
#X connect 11 0 1 0;
#X connect 12 0 8 0;
#X connect 13 0 14 0;
#X connect 14 0 10 0;
#X connect 14 0 9 0;
#X connect 15 0 14 0;
#X connect 15 0 17 0;
#X connect 17 0 16 0;
#X connect 18 0 34 0;
#X connect 19 0 37 0;
#X connect 20 0 45 0;
#X connect 21 0 38 0;
#X connect 22 0 23 0;
#X connect 23 0 32 0;
#X connect 25 0 44 0;
#X connect 26 0 5 0;
#X connect 26 0 4 0;
#X connect 27 0 45 0;
#X connect 27 0 20 0;
#X connect 28 0 23 0;
#X connect 28 0 22 0;
#X connect 29 0 44 0;
#X connect 29 0 25 0;
#X connect 30 0 32 1;
#X connect 30 0 33 1;
#X connect 30 0 41 1;
#X connect 31 0 30 0;
#X connect 32 0 24 0;
#X connect 33 0 39 0;
#X connect 34 0 46 0;
#X connect 34 0 31 0;
#X connect 34 0 47 0;
#X connect 35 0 1 0;
#X connect 36 0 30 0;
#X connect 37 0 36 0;
#X connect 37 0 35 0;
#X connect 40 0 42 0;
#X connect 41 0 43 0;
#X connect 44 0 33 0;
#X connect 44 1 41 0;
#X connect 45 0 21 0;
#X connect 45 1 40 0;
#X connect 46 0 1 0;
#X connect 47 0 48 0;
#X connect 48 0 1 0;
#X restore 596 114 pd minute5;
#N canvas 236 437 1024 453 minute7 1;
#X msg 842 151 stop;
#X floatatom 694 177 5 0 0 0 - - - 0;
#X obj 694 138 line 0.9;
#X obj 25 24 inlet;
#X obj 25 88 bang;
#X msg 38 143 start;
#X text 22 3 start;
#X text 622 5 stop;
#X obj 842 107 del 100;
#X msg 792 111 0 100;
#X obj 25 195 *~ 0.9;
#X obj 792 61 r reset;
#X obj 792 84 bang;
#X obj 622 24 inlet;
#X obj 307 67 s current_part;
#X msg 307 43 7;
#X msg 532 107 0 \, 0.9 500;
#X msg 25 117 open minute_7_sides_loud.wav;
#X msg 622 151 stop;
#X obj 622 84 bang;
#X obj 25 170 readsf~ 2;
#X obj 130 195 *~ 0.9;
#X obj 130 219 throw~ mixer-2;
#X obj 25 219 throw~ mixer-1;
#X obj 622 107 del 8000;
#X msg 694 103 0 8000;
#X msg 253 143 start;
#X obj 240 195 *~ 0.9;
#X msg 240 117 open minute_7_mid_loud.wav;
#X obj 240 219 throw~ mixer-0;
#X obj 240 170 readsf~;
#X connect 0 0 20 0;
#X connect 1 0 10 1;
#X connect 1 0 21 1;
#X connect 1 0 27 1;
#X connect 2 0 1 0;
#X connect 3 0 4 0;
#X connect 3 0 15 0;
#X connect 4 0 16 0;
#X connect 4 0 17 0;
#X connect 4 0 28 0;
#X connect 5 0 20 0;
#X connect 8 0 0 0;
#X connect 9 0 2 0;
#X connect 10 0 23 0;
#X connect 11 0 12 0;
#X connect 12 0 9 0;
#X connect 12 0 8 0;
#X connect 13 0 15 0;
#X connect 13 0 19 0;
#X connect 15 0 14 0;
#X connect 16 0 2 0;
#X connect 17 0 20 0;
#X connect 17 0 5 0;
#X connect 18 0 20 0;
#X connect 19 0 25 0;
#X connect 19 0 24 0;
#X connect 20 0 10 0;
#X connect 20 1 21 0;
#X connect 21 0 22 0;
#X connect 24 0 18 0;
#X connect 25 0 2 0;
#X connect 26 0 30 0;
#X connect 27 0 29 0;
#X connect 28 0 30 0;
#X connect 28 0 26 0;
#X connect 30 0 27 0;
#X restore 774 158 pd minute7;
#X obj 814 98 route 21 22 23 24 25 26 27 28 29 30;
#X connect 0 0 8 0;
#X connect 8 0 1 0;
#X connect 8 1 2 0;
#X connect 8 2 2 1;
#X connect 8 3 3 0;
#X connect 8 4 3 1;
#X connect 8 5 4 0;
#X connect 8 6 4 1;
#X connect 8 7 4 2;
#X connect 8 8 4 3;
#X connect 8 9 6 0;
#X connect 8 10 6 1;
#X connect 8 11 6 2;
#X connect 8 12 9 0;
#X connect 9 0 10 0;
#X connect 9 1 10 1;
#X connect 9 2 10 2;
#X connect 9 3 10 3;
#X connect 9 8 11 0;
#X connect 9 9 12 0;
#X connect 12 0 11 1;
#X connect 12 1 5 0;
#X connect 12 2 5 1;
#X connect 12 3 5 2;
#X connect 12 4 5 3;
#X coords 0 -1 1 1 50 50 1 10 10;
